<svg width="91" height="126" viewBox="0 0 91 126" fill="none" xmlns="http://www.w3.org/2000/svg">
<path d="M89.1393 118.067L38.2393 117.837L0.779297 118.057L0.869293 107.857L1.8093 0.916901L82.2393 1.70691L89.0493 1.77692L89.1393 118.067Z" fill="#F49425"/>
<path d="M62.7492 84.6629C63.5612 75.4699 63.9522 77.0349 59.6482 63.2089C55.3442 49.3829 49.7352 35.8179 46.2132 29.9479C42.6912 24.0779 41.3872 17.5569 34.4742 15.9909C27.5612 14.4259 24.8222 13.9039 20.6482 16.7739C16.4742 19.6439 15.4152 18.2289 16.4662 24.0229C17.5172 29.8169 23.1672 42.7369 26.7992 48.3419C30.4302 53.9469 31.7392 58.7739 35.0632 62.6869C38.3872 66.5999 44.9092 72.9909 49.0822 75.5999C53.2562 78.2089 58.7502 81.8209 59.8982 82.9679C61.0462 84.1149 62.7492 84.6629 62.7492 84.6629Z" fill="#FFC33E"/>
<path d="M89.1393 118.067L38.2393 117.837L0.779297 118.057L0.869293 107.857C17.2993 109.797 42.6493 110.697 57.6893 100.867C81.2993 85.4369 84.1693 17.6869 81.5593 3.59692C81.5593 3.59692 81.8293 2.86691 82.2393 1.70691L89.0493 1.77692L89.1393 118.067Z" fill="#EAD3A4"/>
<path d="M2.78711 118.061C2.78711 118.061 4.5441 123.618 3.1691 124.992C3.1691 124.992 82.9161 127.22 85.2761 124.86C87.6361 122.5 90.5771 122.74 89.8581 120.404C89.1391 118.067 80.8431 117.831 80.8431 117.831L2.78711 118.061Z" fill="#EAD3A4"/>
<path d="M1.67143 0.885917C1.25343 4.62792 1.24944 8.4099 1.17244 12.1719C1.09344 16.0029 1.01845 19.8329 0.949449 23.6639C0.811449 31.3239 0.726434 38.9849 0.643434 46.6449C0.478434 61.8809 0.362448 77.1169 0.229448 92.3529C0.192448 96.5989 0.155441 100.845 0.118441 105.091C0.0994406 107.256 0.080449 109.42 0.061449 111.585C0.042449 113.739 -0.121563 115.941 0.180437 118.075C0.266437 118.683 1.24744 118.938 1.36444 118.206C1.66444 116.335 1.58944 114.439 1.60544 112.546C1.62244 110.631 1.63944 108.716 1.65544 106.801C1.68844 102.971 1.72245 99.1409 1.75545 95.3109C1.82245 87.6509 1.88944 79.9919 1.95644 72.3319C2.08944 57.0969 2.23244 41.8619 2.25844 26.6259C2.26544 22.3809 2.25745 18.1359 2.24445 13.8909C2.23145 9.57192 2.34745 5.21589 1.94045 0.912894C1.92745 0.773894 1.68943 0.722917 1.67143 0.885917Z" fill="#253529"/>
<path d="M88.852 1.72993C88.475 3.55993 88.613 5.41593 88.636 7.27793C88.659 9.18993 88.686 11.1019 88.71 13.0149C88.756 16.7559 88.802 20.4979 88.843 24.2399C88.926 31.8489 89.003 39.4589 89.031 47.0689C89.086 62.2119 89.003 77.3549 88.794 92.4959C88.676 101.027 88.459 109.555 88.299 118.085C88.279 119.169 89.942 119.119 89.977 118.044C90.465 102.867 90.62 87.6689 90.668 72.4849C90.716 57.3489 90.634 42.2069 90.307 27.0739C90.216 22.8339 90.114 18.5949 89.982 14.3569C89.916 12.2379 89.852 10.1189 89.774 7.99992C89.697 5.90392 89.78 3.75793 89.244 1.72193C89.193 1.52893 88.892 1.53493 88.852 1.72993Z" fill="#253529"/>
<path d="M0.962097 1.13692C1.3391 1.09592 1.7131 1.04394 2.0921 1.10094C2.4421 1.15294 2.64311 1.20692 2.99811 1.17992C3.71911 1.12392 4.4451 1.12893 5.1671 1.09993C6.5371 1.04593 7.9081 1.07193 9.2791 1.09993C12.1511 1.15893 15.0241 1.21894 17.8961 1.27894C23.6431 1.39794 29.3901 1.49092 35.1381 1.58992C46.5901 1.78692 58.0421 1.97594 69.4951 2.15694C75.9501 2.25894 82.4051 2.36093 88.8591 2.46193C89.7091 2.47493 89.6751 1.15492 88.8271 1.14192C77.3331 0.962921 65.8401 0.783941 54.3461 0.605941C42.8531 0.426941 31.3601 0.244915 19.8661 0.123915C16.6181 0.0899153 13.3701 0.0549185 10.1231 0.0209185C8.58411 0.00491852 7.04311 -0.0240832 5.50511 0.0379168C4.73311 0.0689168 3.98211 0.159942 3.22011 0.282942C2.84611 0.342942 2.5561 0.386941 2.2251 0.562941C1.8131 0.781941 1.3921 0.913927 0.952102 1.06093C0.910102 1.07393 0.916097 1.14192 0.962097 1.13692Z" fill="#253529"/>
<path d="M0.981781 118.302C11.8648 118.598 22.7698 118.485 33.6558 118.48C44.5018 118.475 55.3468 118.486 66.1928 118.533C71.6178 118.556 77.0428 118.602 82.4678 118.679C83.8138 118.698 85.1608 118.7 86.5058 118.743C87.4418 118.773 88.4478 118.957 88.7788 119.946C89.3368 121.615 88.0588 123.342 86.5398 123.877C84.7998 124.49 82.9028 124.208 81.0908 124.199C80.1678 124.195 79.2448 124.192 78.3218 124.189C74.8588 124.18 71.3958 124.175 67.9338 124.171C63.0118 124.165 58.0908 124.13 53.1688 124.097C47.6198 124.061 42.0688 124.058 36.5198 124.063C31.2378 124.068 25.9558 124.074 20.6738 124.081C16.4768 124.087 12.2798 124.094 8.08177 124.107C5.85577 124.114 3.62878 124.114 1.40178 124.139C1.25178 124.141 1.10078 124.141 0.949784 124.147C-0.134216 124.188 -0.0952312 125.875 0.990769 125.834C2.67377 125.771 4.36578 125.81 6.04878 125.805C9.93878 125.793 13.8298 125.785 17.7198 125.776C22.9678 125.764 28.2148 125.755 33.4628 125.746C39.0938 125.737 44.7238 125.711 50.3548 125.691C55.5478 125.673 60.7408 125.612 65.9338 125.589C69.7268 125.573 73.5198 125.576 77.3128 125.575C79.3748 125.574 81.4328 125.61 83.4938 125.633C85.5058 125.656 87.8628 125.382 89.1968 123.683C90.2068 122.396 90.6798 120.439 89.8458 118.943C89.3808 118.109 88.5168 117.608 87.5908 117.45C86.3158 117.233 84.9638 117.322 83.6738 117.303C80.8998 117.261 78.1248 117.232 75.3508 117.21C64.2958 117.12 53.2418 117.184 42.1878 117.197C31.1348 117.21 20.0828 117.235 9.03078 117.312C6.33878 117.331 3.65078 117.362 0.959778 117.44C0.405778 117.459 0.431781 118.287 0.981781 118.302Z" fill="#253529"/>
<path d="M1.70321 124.827C1.71121 125.091 1.89221 125.265 2.14721 125.312C2.49421 125.376 2.79521 125.165 3.03921 124.945C3.61721 124.422 3.9502 123.627 4.1182 122.88C4.3112 122.02 4.2662 121.116 4.1032 120.255C4.0182 119.81 3.89521 119.372 3.75721 118.941C3.60621 118.465 3.5042 117.914 3.0622 117.628C2.7692 117.438 2.4112 117.658 2.3192 117.952C2.2062 118.314 2.3762 118.645 2.4912 118.985C2.6022 119.312 2.7062 119.642 2.7952 119.976C2.9622 120.605 3.08619 121.248 3.08719 121.9C3.08819 122.452 3.0102 123.022 2.8102 123.539C2.7702 123.643 2.1652 124.795 2.0452 124.673C1.9222 124.548 1.69821 124.655 1.70321 124.827Z" fill="#253529"/>
<path d="M7.46982 110.87C8.12782 107.612 8.20082 104.295 8.27982 100.979C8.31882 99.3349 8.33982 97.6909 8.34282 96.0469C8.34582 94.3439 8.46782 92.5559 8.21282 90.8709C8.11882 90.2479 7.29783 90.2639 7.23783 90.8949C7.08183 92.5169 7.25283 94.1969 7.27083 95.8269C7.28983 97.5119 7.28982 99.1959 7.26982 100.881C7.23082 104.208 7.02983 107.529 7.27883 110.849C7.28583 110.954 7.44682 110.983 7.46982 110.87Z" fill="#253529"/>
<path d="M7.89757 85.7059C7.86157 85.6669 7.82557 85.6289 7.78957 85.5899C7.75057 85.5609 7.71056 85.5319 7.67156 85.5029C7.60456 85.4629 7.53356 85.4419 7.45656 85.4399C7.40556 85.4279 7.35456 85.4289 7.30356 85.4439C7.22756 85.4489 7.15657 85.4739 7.09157 85.5169C7.08857 85.5189 7.08557 85.5219 7.08257 85.5239C7.21057 85.5039 7.33856 85.4839 7.46556 85.4639C7.44856 85.4599 7.43157 85.4569 7.41457 85.4529C7.37157 85.4439 7.32257 85.4369 7.27857 85.4359C7.23657 85.4379 7.19557 85.4439 7.15557 85.4559C7.09857 85.4709 7.04956 85.4979 7.00856 85.5379C6.96156 85.5699 6.92556 85.6119 6.89856 85.6639C6.88956 85.6829 6.88257 85.7019 6.87557 85.7209C6.84857 85.7749 6.83757 85.8329 6.84157 85.8939C6.84157 85.8979 6.84156 85.9019 6.84256 85.9059C6.84356 85.9239 6.84457 85.9419 6.84557 85.9599C6.89157 85.8409 6.93756 85.7219 6.98256 85.6029C6.98056 85.6049 6.97857 85.6059 6.97657 85.6079C6.94757 85.6469 6.91856 85.6869 6.88956 85.7259C6.84956 85.7929 6.82857 85.8649 6.82657 85.9409C6.81457 85.9919 6.81557 86.0429 6.83057 86.0939C6.83557 86.1699 6.86057 86.2409 6.90357 86.3059C6.93557 86.3479 6.96757 86.3899 7.00057 86.4309C7.05457 86.5169 7.12557 86.5849 7.21457 86.6349C7.26157 86.6529 7.30857 86.6719 7.35457 86.6899C7.45857 86.7149 7.56156 86.7129 7.66356 86.6819C7.73856 86.6619 7.80357 86.6259 7.85857 86.5729C7.92057 86.5299 7.96957 86.4749 8.00457 86.4059C8.04557 86.3379 8.06656 86.2659 8.06856 86.1879C8.08356 86.1099 8.07857 86.0329 8.05257 85.9559C8.02357 85.8609 7.97157 85.7769 7.89757 85.7059Z" fill="#253529"/>
<path d="M7.94684 5.78293C7.72984 8.01293 7.74884 10.2749 7.68384 12.5139C7.61884 14.7569 7.55284 16.9999 7.48584 19.2429C7.35084 23.7679 7.29984 28.2959 7.22284 32.8219C7.06984 41.8319 6.90084 50.8429 6.71684 59.8519C6.66584 62.3429 6.61484 64.8339 6.56184 67.3259C6.53484 68.6129 6.50684 69.8999 6.47984 71.1869C6.45184 72.4679 6.35085 73.7699 6.48085 75.0459C6.52785 75.5009 7.26584 75.6629 7.34184 75.1409C7.65784 72.9859 7.53484 70.7219 7.58084 68.5449C7.62984 66.2609 7.67784 63.9779 7.72384 61.6939C7.81484 57.1679 7.90084 52.6429 7.98384 48.1169C8.14784 39.1069 8.30184 30.0979 8.40484 21.0869C8.43384 18.5549 8.41284 16.0229 8.41084 13.4909C8.40884 10.9259 8.51285 8.33191 8.32985 5.77191C8.31185 5.52191 7.97084 5.54293 7.94684 5.78293Z" fill="#253529"/>
<path d="M8.03391 6.23191C8.54091 5.93391 9.18191 5.87191 9.75991 5.78791C10.2869 5.71091 10.8099 5.66892 11.3429 5.69492C12.6179 5.75592 13.8679 6.06491 15.1439 6.11591C16.3739 6.16491 17.5889 5.94691 18.8029 5.78391C20.0599 5.61591 21.2659 5.68592 22.5169 5.67692C22.8939 5.67392 23.0479 5.11592 22.6959 4.94492C21.5329 4.37992 20.1439 4.57292 18.8909 4.74592C17.5219 4.93492 16.1569 5.19692 14.7679 5.10392C13.4499 5.01492 12.1479 4.67391 10.8209 4.75391C10.2669 4.78691 9.71691 4.87091 9.20791 5.10291C8.69091 5.33891 8.35191 5.75391 7.99291 6.18491C7.97291 6.21091 8.00191 6.25091 8.03391 6.23191Z" fill="#253529"/>
<path d="M27.0061 5.53694C27.0181 5.52394 27.0311 5.51094 27.0441 5.49794C27.0511 5.49094 27.0751 5.47094 27.0421 5.49794C27.0321 5.50794 27.0201 5.51594 27.0061 5.51994C26.9821 5.52994 26.9781 5.53192 26.9941 5.52592C26.9241 5.51892 26.8531 5.51092 26.7821 5.50392C26.8931 5.58092 27.0291 5.58494 27.1511 5.53694C27.1791 5.52594 27.2081 5.51793 27.2361 5.50993C27.1221 5.49793 27.0081 5.48592 26.8931 5.47392C27.0271 5.55992 27.1801 5.55193 27.3261 5.50993C27.3591 5.50093 27.3911 5.49293 27.4251 5.48793C27.3801 5.49493 27.3361 5.50193 27.2911 5.50893C27.3831 5.49493 27.4711 5.47393 27.5621 5.45793C27.5171 5.46493 27.4721 5.47193 27.4271 5.47993C27.4941 5.46893 27.5611 5.46695 27.6281 5.47295C27.5831 5.46795 27.5381 5.46293 27.4931 5.45793C27.5991 5.46993 27.6821 5.48694 27.7881 5.45494C27.8781 5.42794 27.9761 5.36993 28.0321 5.29393C28.0021 5.31793 27.9721 5.34293 27.9421 5.36693C27.9451 5.36593 27.9471 5.36393 27.9501 5.36293C27.9151 5.37893 27.8801 5.39493 27.8451 5.41093C27.8581 5.40493 27.8711 5.39994 27.8841 5.39494C28.0081 5.34794 28.0971 5.27394 28.1461 5.14894C28.1941 5.02594 28.1851 4.89594 28.1161 4.78194C28.1081 4.76794 28.0991 4.75493 28.0901 4.74193C28.1061 4.77793 28.1221 4.81392 28.1381 4.84892C28.1181 4.75292 28.0621 4.66693 27.9921 4.59993C27.9311 4.54293 27.8371 4.48795 27.7521 4.47295C27.6831 4.46095 27.6121 4.45394 27.5411 4.45094C27.4431 4.44694 27.3441 4.46492 27.2491 4.48292C27.1531 4.50092 27.0651 4.53892 26.9821 4.58992C26.8031 4.69992 26.6461 4.86592 26.6661 5.09492C26.7071 4.98892 26.7471 4.88394 26.7881 4.77794C26.7381 4.84094 26.6891 4.90494 26.6501 4.97594C26.6071 5.05494 26.5951 5.14392 26.6091 5.23192C26.6241 5.32492 26.6631 5.38594 26.7241 5.45894L26.7261 5.46193C26.6981 5.39793 26.6691 5.33394 26.6411 5.26994C26.6401 5.28094 26.6381 5.31492 26.6421 5.26692C26.6461 5.21792 26.6411 5.25693 26.6381 5.26793C26.6341 5.28793 26.6301 5.30893 26.6281 5.32893C26.6161 5.42493 26.6421 5.53093 26.7361 5.57793C26.8251 5.62193 26.9371 5.61194 27.0061 5.53694Z" fill="#253529"/>
<path d="M35.0093 5.40393C35.6743 5.64093 36.3633 5.61891 37.0653 5.62991C37.8953 5.64291 38.7253 5.65591 39.5553 5.66791C41.0903 5.69191 42.6253 5.68091 44.1603 5.68091C47.2713 5.68291 50.3833 5.68391 53.4953 5.68591C59.7183 5.68891 65.9413 5.6919 72.1643 5.6929C75.6493 5.6939 79.1343 5.69392 82.6193 5.69492C83.2733 5.69492 83.2473 4.6799 82.5943 4.6799C70.1483 4.6829 57.7023 4.6869 45.2573 4.6929C43.5563 4.6939 41.8553 4.67993 40.1543 4.69693C39.2833 4.70593 38.4123 4.72391 37.5413 4.73691C36.6913 4.74991 35.8063 4.68491 34.9983 4.97391C34.7823 5.05191 34.8043 5.33093 35.0093 5.40393Z" fill="#253529"/>
<path d="M82.7785 8.65794C82.5595 9.79994 82.7145 11.1059 82.7265 12.2659C82.7385 13.4289 82.7515 14.5929 82.7665 15.7569C82.7955 18.1259 82.8295 20.4939 82.8685 22.8629C82.9065 25.2309 82.9505 27.5999 82.9975 29.9679C83.0215 31.1309 83.0415 32.2949 83.0725 33.4579C83.1005 34.5069 82.9705 35.8429 83.5045 36.7869C83.5745 36.9099 83.7715 36.9049 83.8345 36.7789C84.3215 35.8109 84.1285 34.4799 84.1085 33.4329C84.0875 32.2699 84.0565 31.1059 84.0325 29.9429C83.9825 27.5749 83.9365 25.2059 83.8955 22.8379C83.8545 20.4699 83.8185 18.1009 83.7865 15.7329C83.7705 14.5689 83.7565 13.4059 83.7435 12.2419C83.7305 11.0779 83.8555 9.77892 83.6155 8.63792C83.5265 8.21792 82.8575 8.24894 82.7785 8.65794Z" fill="#253529"/>
<path d="M83.3999 41.8289C83.9729 41.8289 83.9509 40.9389 83.3779 40.9389C82.8049 40.9379 82.8269 41.8289 83.3999 41.8289Z" fill="#253529"/>
<path d="M83.6743 44.7039C83.5893 47.4219 83.6563 50.1499 83.6673 52.8689C83.6783 55.5489 83.6813 58.2299 83.6783 60.9099C83.6713 66.3109 83.5504 71.7139 83.2914 77.1079C83.2204 78.5909 83.1393 80.0729 83.0473 81.5539C82.9993 82.3359 82.9473 83.1179 82.8933 83.8989C82.8433 84.6229 82.6723 85.3929 82.9283 86.0879C83.0333 86.3739 83.4364 86.4439 83.5934 86.1579C83.8864 85.6269 83.8763 85.0839 83.9173 84.4889C83.9663 83.7899 84.0133 83.0909 84.0573 82.3909C84.1433 81.0329 84.2214 79.6749 84.2894 78.3159C84.4264 75.5979 84.5294 72.8789 84.5974 70.1589C84.7334 64.7199 84.7413 59.2719 84.4743 53.8369C84.3243 50.7929 84.1634 47.7219 83.7424 44.7009C83.7384 44.6579 83.6753 44.6579 83.6743 44.7039Z" fill="#253529"/>
<path d="M83.5991 89.0739C83.6811 89.0749 83.7571 89.0559 83.8271 89.0169C83.9001 88.9909 83.9631 88.9489 84.0151 88.8889C84.0721 88.8339 84.1111 88.7689 84.1331 88.6949C84.1681 88.6229 84.1841 88.5469 84.1791 88.4649C84.1711 88.4129 84.1621 88.3599 84.1541 88.3069C84.1231 88.2069 84.0701 88.1209 83.9951 88.0479C83.9541 88.0179 83.9131 87.9879 83.8731 87.9579C83.7791 87.9069 83.6781 87.8819 83.5711 87.8839C83.4891 87.8829 83.4131 87.9019 83.3431 87.9409C83.2701 87.9669 83.2071 88.0089 83.1551 88.0689C83.0981 88.1239 83.0591 88.1889 83.0371 88.2629C83.0021 88.3349 82.9861 88.4109 82.9911 88.4929C82.9991 88.5449 83.0081 88.5979 83.0161 88.6509C83.0471 88.7509 83.1001 88.8369 83.1751 88.9099C83.2161 88.9399 83.2571 88.9699 83.2971 88.9999C83.3911 89.0519 83.4921 89.0769 83.5991 89.0739Z" fill="#253529"/>
<path d="M83.0098 93.7859C83.0428 93.7819 83.0748 93.7779 83.1078 93.7729C83.1238 93.7709 83.1398 93.7689 83.1558 93.7669C83.1638 93.7659 83.1718 93.7649 83.1798 93.7639C83.2068 93.7609 83.2328 93.7559 83.2598 93.7519C83.3308 93.7469 83.3958 93.7239 83.4558 93.6839C83.4918 93.6549 83.5278 93.6259 83.5638 93.5969C83.6138 93.5479 83.6488 93.4899 83.6688 93.4239C83.6998 93.3599 83.7138 93.2919 83.7088 93.2189C83.7018 93.1719 83.6938 93.1259 83.6868 93.0789C83.6598 92.9899 83.6118 92.9129 83.5448 92.8489C83.5098 92.8189 83.4728 92.7919 83.4328 92.7669C83.3898 92.7499 83.3478 92.7329 83.3048 92.7169C83.3008 92.7159 83.2968 92.7159 83.2928 92.7159C83.2848 92.7149 83.2769 92.7139 83.2699 92.7129C83.2549 92.7109 83.2388 92.7089 83.2238 92.7069C83.1928 92.7029 83.1618 92.6989 83.1308 92.6949C83.0318 92.6709 82.9338 92.6729 82.8358 92.7019C82.7918 92.7219 82.7488 92.7409 82.7048 92.7609C82.6228 92.8119 82.5578 92.8799 82.5108 92.9649C82.4718 93.0299 82.4518 93.0989 82.4498 93.1729C82.4348 93.2469 82.4398 93.3209 82.4648 93.3939C82.4838 93.4659 82.5178 93.5279 82.5688 93.5799C82.6098 93.6389 82.6628 93.6859 82.7278 93.7189C82.8158 93.7649 82.9098 93.7879 83.0098 93.7859Z" fill="#253529"/>
<path d="M83.0865 96.0369C82.8095 97.0859 82.9505 98.3799 82.9855 99.4589C83.0275 100.719 83.0445 101.98 83.0485 103.241C83.0525 104.463 83.0315 105.685 83.0115 106.907C82.9915 108.153 82.8455 109.453 82.9535 110.693C82.9975 111.197 83.8215 111.366 83.8995 110.798C84.0685 109.559 83.9995 108.254 84.0175 107.005C84.0365 105.743 84.0325 104.48 84.0085 103.218C83.9845 101.957 83.9275 100.696 83.8255 99.4379C83.7375 98.3569 83.6515 96.9989 83.1435 96.0279C83.1305 96.0039 83.0935 96.0129 83.0865 96.0369Z" fill="#253529"/>
<path d="M10.0198 111.126C11.2758 111.249 12.4848 111.453 13.7548 111.468C14.9558 111.483 16.1568 111.487 17.3578 111.496C19.8008 111.515 22.2438 111.502 24.6868 111.503C29.6138 111.504 34.5408 111.506 39.4688 111.507C42.2428 111.508 45.0168 111.508 47.7908 111.509C48.3988 111.509 48.3758 110.564 47.7678 110.564C37.9548 110.567 28.1418 110.569 18.3298 110.572C16.9638 110.572 15.5978 110.59 14.2318 110.601C13.5698 110.606 12.9068 110.62 12.2458 110.662C11.4938 110.71 10.7658 110.873 10.0168 110.947C9.89881 110.958 9.90682 111.114 10.0198 111.126Z" fill="#253529"/>
<path d="M50.3654 111.113C50.3704 111.124 50.3744 111.135 50.3794 111.147C50.3874 111.073 50.3954 111 50.4024 110.927C50.4004 110.931 50.3984 110.934 50.3964 110.938C50.3274 111.052 50.3384 111.205 50.4054 111.316C50.4194 111.34 50.4344 111.363 50.4484 111.387C50.4324 111.283 50.4164 111.179 50.3994 111.074C50.3954 111.085 50.3924 111.096 50.3884 111.107C50.3834 111.151 50.3784 111.194 50.3744 111.238C50.3734 111.306 50.3894 111.369 50.4214 111.426C50.4344 111.467 50.4564 111.503 50.4874 111.533C50.5234 111.586 50.5704 111.627 50.6284 111.656C50.6484 111.67 50.6674 111.684 50.6874 111.698C50.7394 111.735 50.7884 111.76 50.8564 111.776C50.9424 111.797 51.0284 111.795 51.1134 111.77C51.1944 111.745 51.2644 111.702 51.3234 111.64C51.3484 111.607 51.3724 111.574 51.3964 111.54C51.4384 111.463 51.4584 111.381 51.4564 111.294C51.4544 111.207 51.4304 111.126 51.3844 111.051C51.3384 110.97 51.2734 110.923 51.2044 110.869C51.1704 110.844 51.1364 110.819 51.1034 110.795C51.0464 110.76 50.9844 110.743 50.9194 110.741C50.8754 110.73 50.8324 110.731 50.7884 110.744C50.7234 110.748 50.6624 110.769 50.6074 110.807C50.5984 110.813 50.5894 110.819 50.5804 110.825C50.6844 110.809 50.7884 110.792 50.8924 110.776C50.8654 110.769 50.8394 110.762 50.8134 110.754C50.6874 110.72 50.5404 110.763 50.4524 110.859C50.4504 110.862 50.4474 110.864 50.4454 110.867C50.5374 110.84 50.6294 110.814 50.7204 110.787C50.7064 110.785 50.6924 110.784 50.6794 110.782C50.6324 110.771 50.5864 110.772 50.5404 110.785C50.4964 110.799 50.4584 110.822 50.4264 110.855C50.3664 110.919 50.3304 111.029 50.3654 111.113Z" fill="#253529"/>
<path d="M54.3893 111.218C54.3843 111.264 54.3883 111.227 54.3893 111.218C54.3903 111.208 54.3922 111.198 54.3932 111.188C54.3692 111.221 54.3452 111.254 54.3212 111.287C54.3442 111.272 54.3692 111.256 54.3882 111.236C54.4172 111.205 54.4343 111.167 54.4473 111.127C54.4513 111.116 54.4543 111.105 54.4583 111.094C54.4003 111.155 54.3422 111.215 54.2852 111.276C54.2922 111.275 54.2992 111.273 54.3062 111.272C54.3352 111.259 54.3632 111.246 54.3922 111.233C54.4342 111.208 54.4683 111.171 54.4973 111.133C54.5163 111.107 54.5252 111.094 54.5372 111.068C54.5472 111.048 54.5582 111.029 54.5712 111.011C54.4912 111.076 54.4112 111.141 54.3302 111.206C54.3342 111.205 54.3383 111.203 54.3423 111.202C54.3043 111.208 54.2663 111.214 54.2283 111.22C54.2483 111.221 54.2692 111.217 54.2892 111.211C54.3472 111.207 54.4013 111.188 54.4503 111.155C54.4793 111.131 54.5082 111.108 54.5372 111.084C54.5612 111.052 54.5842 111.02 54.6082 110.987C54.5862 111.017 54.5642 111.048 54.5412 111.078C54.5562 111.058 54.5742 111.04 54.5932 111.024C54.5622 111.049 54.5323 111.074 54.5013 111.099C54.5153 111.088 54.5292 111.079 54.5452 111.071C54.5072 111.088 54.4692 111.105 54.4312 111.122C54.4682 111.106 54.5152 111.088 54.5502 111.069C54.5882 111.048 54.6212 111.017 54.6532 110.986C54.6592 110.98 54.6642 110.975 54.6702 110.97C54.6382 110.996 54.6073 111.022 54.5753 111.047C54.5883 111.037 54.6012 111.029 54.6162 111.022C54.5792 111.039 54.5422 111.056 54.5052 111.072C54.5232 111.064 54.5423 111.059 54.5623 111.055C54.5213 111.061 54.4812 111.068 54.4402 111.074C54.4642 111.07 54.4883 111.07 54.5123 111.072C54.4723 111.068 54.4322 111.063 54.3932 111.059C54.4162 111.062 54.4392 111.067 54.4612 111.075C54.4262 111.061 54.3912 111.047 54.3562 111.034C54.3982 111.051 54.4403 111.072 54.4843 111.082C54.4933 111.084 54.5012 111.086 54.5092 111.089C54.4762 111.076 54.4423 111.063 54.4093 111.05C54.4203 111.054 54.4303 111.059 54.4393 111.066C54.4123 111.046 54.3843 111.026 54.3573 111.006C54.3653 111.012 54.3723 111.018 54.3783 111.025C54.3573 111 54.3373 110.974 54.3163 110.949C54.3193 110.952 54.3212 110.956 54.3232 110.959C54.3612 111.012 54.4052 111.062 54.4632 111.093C54.4812 111.103 54.5373 111.124 54.5573 111.129C54.5733 111.131 54.5892 111.132 54.6042 111.134C54.6852 111.153 54.7543 111.122 54.8123 111.041C54.9103 111.025 54.9702 110.977 54.9912 110.897C54.9982 110.881 55.0043 110.864 55.0103 110.848C55.0223 110.809 55.0232 110.765 55.0262 110.725C55.0272 110.716 55.0272 110.707 55.0262 110.698C55.0182 110.595 54.9962 110.539 54.9512 110.447C54.9482 110.442 54.9463 110.437 54.9433 110.432C54.9383 110.424 54.8793 110.351 54.8723 110.344C54.8703 110.342 54.8682 110.34 54.8662 110.339C54.8312 110.308 54.7913 110.281 54.7533 110.255C54.7183 110.231 54.6803 110.218 54.6413 110.203C54.6133 110.192 54.5843 110.179 54.5553 110.171C54.5243 110.163 54.4922 110.162 54.4612 110.158C54.4322 110.155 54.3992 110.149 54.3692 110.15C54.3172 110.15 54.2652 110.163 54.2142 110.172C54.2032 110.174 54.1913 110.177 54.1803 110.181C54.1573 110.19 54.1323 110.202 54.1113 110.212C54.1313 110.203 54.0653 110.23 54.0493 110.24C54.0243 110.255 53.9692 110.299 53.9482 110.321C53.9352 110.335 53.8962 110.392 53.9082 110.375C53.8972 110.39 53.8783 110.411 53.8683 110.431C53.8653 110.437 53.8622 110.442 53.8602 110.448C53.8382 110.498 53.8142 110.551 53.8022 110.606C53.7902 110.661 53.7852 110.719 53.7822 110.774C53.7822 110.778 53.7823 110.781 53.7812 110.785C53.7812 110.787 53.7812 110.79 53.7812 110.792C53.7873 110.831 53.7932 110.869 53.8002 110.908C53.8082 110.925 53.8162 110.943 53.8232 110.96C53.8342 110.997 53.8542 111.029 53.8822 111.055C53.9022 111.087 53.9292 111.113 53.9622 111.132C53.9772 111.144 53.9923 111.155 54.0083 111.166C53.9793 111.144 53.9493 111.123 53.9193 111.101C53.9223 111.104 53.9243 111.107 53.9263 111.11C53.8893 111.05 53.8533 110.991 53.8163 110.931C53.8213 110.955 53.8272 110.978 53.8362 111.001C53.8382 111.006 53.8403 111.011 53.8423 111.015C53.8493 111.032 53.8572 111.049 53.8652 111.066C53.8752 111.097 53.8913 111.124 53.9153 111.146C53.9463 111.184 53.9812 111.217 54.0242 111.241C54.0532 111.252 54.0822 111.264 54.1122 111.275C54.1472 111.284 54.1823 111.288 54.2173 111.285C54.1433 111.245 54.0692 111.205 53.9942 111.164C54.0132 111.188 54.0332 111.212 54.0522 111.236C54.0392 111.22 54.0263 111.205 54.0143 111.189C54.0363 111.216 54.0533 111.239 54.0813 111.26C54.1173 111.286 54.1533 111.299 54.1973 111.305C54.1643 111.281 54.1313 111.257 54.0983 111.233C54.1203 111.261 54.1423 111.289 54.1653 111.316C54.1983 111.356 54.2682 111.359 54.3112 111.34C54.3632 111.318 54.3833 111.273 54.3893 111.218Z" fill="#253529"/>
<path d="M57.3579 111.337C58.3099 111.642 59.3789 111.562 60.3669 111.599C61.4489 111.639 62.5299 111.676 63.6129 111.707C65.7749 111.77 67.9399 111.768 70.1019 111.842C72.1679 111.913 74.2429 111.99 76.3059 112.123C77.3829 112.193 78.4579 112.295 79.5249 112.457C80.4069 112.591 81.306 112.802 82.2 112.655C83.587 112.427 85.0779 110.693 83.7739 109.461C83.4399 109.145 82.9729 109.565 83.1729 109.949C83.6909 110.945 82.4819 111.633 81.6909 111.675C80.6539 111.731 79.5909 111.45 78.5609 111.345C76.2409 111.11 73.9109 111.095 71.5819 111.128C69.1699 111.162 66.7589 111.095 64.3469 111.088C63.1829 111.085 62.0189 111.083 60.8549 111.093C59.7219 111.102 58.4549 110.951 57.3579 111.268C57.3209 111.28 57.3259 111.327 57.3579 111.337Z" fill="#253529"/>
<path d="M23.4063 24.0989C27.1453 28.5459 31.1603 32.7769 35.0553 37.0869C38.7483 41.1729 42.4233 45.2099 45.3103 49.9259C48.1443 54.5559 50.4633 59.4949 52.8703 64.3539C55.3393 69.3409 57.7633 74.3519 59.9723 79.4609C61.1943 82.2879 62.3483 85.1459 63.4003 88.0409C63.9503 89.5539 64.4723 91.0769 64.9633 92.6089C65.2133 93.3889 65.4553 94.1719 65.6903 94.9569C65.7953 95.3099 65.8993 95.6639 66.0023 96.0179C66.0593 96.2149 66.1173 96.4109 66.1713 96.6089C66.1933 96.6879 66.2163 96.7669 66.2383 96.8449C66.2783 97.0049 66.2843 97.0299 66.2563 96.9189C66.3613 96.8339 66.4673 96.7479 66.5723 96.6629C66.5433 96.6699 66.5143 96.6769 66.4843 96.6839C66.6203 96.6979 66.7563 96.7129 66.8923 96.7269C66.9253 96.7599 66.9583 96.7939 66.9913 96.8269C66.8823 97.0299 66.7743 97.2329 66.6653 97.4359C66.6893 97.4279 66.7123 97.4189 66.7363 97.4109C67.3253 97.2009 67.0483 96.2639 66.4533 96.4759C65.5033 96.8139 66.3503 98.1959 67.1173 97.5509C67.5193 97.2129 67.4173 96.7119 67.2993 96.2669C67.0893 95.4759 66.8433 94.6919 66.6043 93.9089C65.7113 90.9899 64.7063 88.1069 63.6073 85.2589C61.4543 79.6809 58.9573 74.2449 56.3413 68.8709C53.7553 63.5579 51.1763 58.2109 48.3153 53.0389C46.9133 50.5049 45.4043 48.0259 43.6833 45.6949C41.9653 43.3679 40.0473 41.1999 38.0743 39.0889C35.7153 36.5649 33.3103 34.0839 30.9333 31.5769C28.5003 29.0119 26.0843 26.4119 23.5533 23.9439C23.4523 23.8489 23.3213 23.9979 23.4063 24.0989Z" fill="#253529"/>
<path d="M63.6601 89.3209C64.2701 86.6429 62.4931 84.3279 60.4511 82.8319C58.2011 81.1849 55.6911 79.8709 53.3521 78.3499C48.7031 75.3259 44.2131 72.0359 40.2361 68.1559C36.2201 64.2379 32.8891 59.7729 30.4341 54.7219C29.0771 51.9299 27.7961 49.1119 26.3341 46.3709C24.9841 43.8399 23.5761 41.3409 22.2541 38.7949C20.9041 36.1949 19.6411 33.5419 18.6611 30.7779C17.7001 28.0679 16.9041 25.1509 16.8031 22.2629C16.7501 20.7499 17.4231 19.6989 18.6441 18.8629C19.7641 18.0969 21.0271 17.4999 22.2451 16.9089C24.9681 15.5899 27.8161 14.8449 30.8351 15.4519C36.5751 16.6059 40.6601 21.1349 43.4651 25.9989C44.9961 28.6539 46.2621 31.4579 47.5151 34.2519C48.8491 37.2259 50.1241 40.2259 51.3561 43.2439C53.8361 49.3199 56.1381 55.4669 58.3871 61.6309C59.4841 64.6389 60.5911 67.6439 61.6521 70.6649C62.6701 73.5619 63.5971 76.6449 63.1871 79.7499C63.0021 81.1469 62.5541 82.4709 61.7911 83.6589C61.4341 84.2139 62.3321 84.7049 62.6861 84.1539C66.2021 78.6849 63.2251 72.0009 61.2601 66.5599C58.9621 60.1979 56.6461 53.8419 54.1731 47.5449C51.7501 41.3759 49.2091 35.2309 46.3211 29.2629C43.8161 24.0879 40.6371 18.8969 35.4321 16.0749C33.0181 14.7659 30.2421 14.0059 27.4851 14.2469C24.5231 14.5059 21.7941 15.9199 19.2271 17.3279C18.1471 17.9199 17.0661 18.6259 16.3931 19.6849C15.6051 20.9249 15.7571 22.4149 15.9291 23.8039C16.2891 26.7069 17.0791 29.5329 18.1321 32.2579C20.2861 37.8329 23.4231 42.9469 26.1771 48.2319C27.6741 51.1049 28.9261 54.0989 30.4401 56.9629C31.7661 59.4729 33.3511 61.8389 35.1331 64.0479C38.6601 68.4189 42.8901 72.1529 47.4081 75.4679C49.6831 77.1369 52.0311 78.7049 54.4291 80.1909C55.6431 80.9429 56.8681 81.6749 58.0991 82.3989C59.4071 83.1689 60.7171 83.9129 61.7911 85.0049C62.8961 86.1269 63.6331 87.6609 63.4031 89.2579C63.3791 89.4229 63.6211 89.4909 63.6601 89.3209Z" fill="#253529"/>
<path d="M57.4846 73.5479C57.9916 72.8519 58.2347 72.0349 58.5207 71.2299C58.8037 70.4329 59.0856 69.6369 59.3686 68.8399C59.6506 68.0439 59.9456 67.2509 60.2106 66.4489C60.3786 65.9379 60.5107 65.0859 59.7857 64.9969C59.6157 64.9759 59.4936 65.0689 59.4806 65.2419C59.3846 66.4569 58.7556 67.8549 58.3346 69.0859C58.0876 69.8079 57.8416 70.5289 57.5946 71.2509C57.3456 71.9789 57.0986 72.6709 57.0686 73.4459C57.0576 73.6919 57.3696 73.7069 57.4846 73.5479Z" fill="#253529"/>
<path d="M54.5254 66.0809C54.9084 65.3699 55.1054 64.5789 55.3414 63.8119C55.5754 63.0539 55.8354 62.3039 56.1224 61.5649C56.4164 60.8069 56.7314 60.0489 57.0854 59.3169C57.2694 58.9369 57.4903 58.5769 57.6853 58.2019C57.8503 57.8859 58.0614 57.5969 57.9114 57.2329C57.8604 57.1089 57.7574 57.0519 57.6244 57.0789C57.2424 57.1559 57.1203 57.4849 56.9633 57.8029C56.7733 58.1869 56.6294 58.5799 56.4584 58.9709C56.1284 59.7259 55.8093 60.4809 55.5263 61.2549C55.2363 62.0479 54.9764 62.8519 54.7464 63.6649C54.5274 64.4379 54.3194 65.2329 54.3634 66.0429C54.3684 66.1249 54.4834 66.1579 54.5254 66.0809Z" fill="#253529"/>
<path d="M30.7794 56.1859C32.0054 57.1459 33.6764 57.2779 35.1804 57.4609C36.9704 57.6789 38.7664 57.8619 40.5594 58.0619C42.3134 58.2569 44.0694 58.4329 45.8234 58.6159C46.6804 58.7059 47.5375 58.7949 48.3955 58.8849C48.8445 58.9319 49.2935 58.9789 49.7425 59.0259C50.1655 59.0699 50.5074 59.1849 50.8644 58.9169C51.0244 58.7969 51.0445 58.6059 50.9125 58.4559C50.6615 58.1699 50.4614 58.1829 50.0864 58.1439C49.6374 58.0969 49.1884 58.0509 48.7394 58.0039C47.8824 57.9149 47.0244 57.8259 46.1674 57.7369C44.4124 57.5549 42.6574 57.3649 40.9014 57.1919C39.1874 57.0229 37.4734 56.8589 35.7584 56.6939C34.1034 56.5349 32.4434 56.2619 30.7914 56.1529C30.7764 56.1509 30.7664 56.1759 30.7794 56.1859Z" fill="#253529"/>
<path d="M26.7838 49.2279C27.3298 49.6689 28.1698 49.8439 28.8258 50.0579C29.6538 50.3269 30.4948 50.5579 31.3488 50.7279C33.0968 51.0749 34.8888 51.2549 36.6578 51.4659C40.1588 51.8829 43.7078 52.3779 46.9508 53.8379C47.5348 54.1009 48.0208 53.2259 47.4338 52.9619C44.2018 51.5119 40.7138 50.9649 37.2228 50.5479C35.4808 50.3399 33.7368 50.1619 31.9978 49.9239C31.1298 49.8049 30.2588 49.7069 29.3908 49.5879C28.5638 49.4739 27.6268 49.1419 26.7958 49.1949C26.7808 49.1949 26.7698 49.2159 26.7838 49.2279Z" fill="#253529"/>
<path d="M27.5734 15.1289C27.3434 15.7469 27.5004 16.4629 27.5764 17.1019C27.6644 17.8379 27.7444 18.5749 27.8434 19.3089C28.0354 20.7389 28.2404 22.1679 28.4844 23.5899C28.9754 26.4509 29.5664 29.2929 30.4674 32.0559C30.6054 32.4779 31.1814 32.5379 31.4044 32.1549C31.7094 31.6309 31.5004 31.2809 31.0684 30.9639C30.8774 30.8229 30.5934 31.0719 30.6744 31.2819C30.6884 31.3189 30.6884 31.4219 30.5864 31.5539C30.8734 31.6219 31.1594 31.6909 31.4464 31.7589C30.5654 29.0359 29.9594 26.2339 29.4524 23.4199C29.2044 22.0449 28.9604 20.6689 28.6994 19.2949C28.5614 18.5669 28.4004 17.8429 28.2544 17.1159C28.1224 16.4579 28.0404 15.6579 27.6084 15.1219C27.5984 15.1089 27.5794 15.1119 27.5734 15.1289Z" fill="#253529"/>
<path d="M17.7581 31.0989C18.7301 31.6119 20.0261 31.6679 21.1021 31.8269C22.2661 31.9989 23.4321 32.1589 24.5991 32.3159C26.9531 32.6329 29.3071 32.9449 31.6621 33.2519C32.0721 33.3049 32.2321 32.6759 31.8191 32.6229C29.4631 32.3159 27.1051 32.0209 24.7481 31.7169C23.5801 31.5669 22.4121 31.4119 21.2461 31.2479C20.1511 31.0929 18.9031 30.7479 17.8021 30.9169C17.7141 30.9289 17.6631 31.0489 17.7581 31.0989Z" fill="#253529"/>
<path d="M46.3807 30.7859C45.7227 31.8299 45.4567 33.1149 45.1487 34.2939C44.8387 35.4799 44.5357 36.6679 44.2307 37.8549C43.9257 39.0419 43.6147 40.2279 43.2997 41.4129C43.1317 42.0449 42.9617 42.6759 42.7907 43.3069C42.6337 43.8869 42.3867 44.4899 42.3947 45.0939C42.4007 45.5339 42.9847 45.6449 43.1997 45.2909C43.5117 44.7779 43.6017 44.1239 43.7557 43.5479C43.9247 42.9159 44.0927 42.2849 44.2587 41.6519C44.5697 40.4659 44.8767 39.2789 45.1777 38.0909C45.4787 36.9019 45.7727 35.7129 46.0487 34.5179C46.3237 33.3299 46.6747 32.0579 46.5567 30.8289C46.5477 30.7359 46.4317 30.7049 46.3807 30.7859Z" fill="#253529"/>
<path d="M63.6748 89.4959C63.4698 88.5759 63.1898 87.7499 62.4688 87.0979C61.7528 86.4489 60.8628 86.1449 59.9028 86.3109C58.7728 86.5059 57.7008 87.1609 56.6738 87.6429C56.0898 87.9169 55.5058 88.1909 54.9218 88.4649C54.3708 88.7239 53.7378 88.9299 53.2908 89.3519C53.0008 89.6249 53.2348 90.2339 53.6558 90.1769C54.1428 90.1109 54.5478 89.8789 54.9868 89.6669C55.4798 89.4279 55.9728 89.1899 56.4658 88.9509C57.4228 88.4879 58.3698 87.9839 59.3458 87.5619C60.1828 87.2009 61.0078 87.1449 61.7748 87.6889C62.4518 88.1689 63.0998 88.8779 63.6198 89.5209C63.6398 89.5489 63.6828 89.5319 63.6748 89.4959Z" fill="#253529"/>
<path d="M64.3192 88.8159C63.6402 88.2379 63.7112 87.2069 63.9842 86.4399C64.2922 85.5759 64.9042 84.7959 65.6202 84.2289C66.3512 83.6499 67.0702 83.0809 67.8482 82.5629C68.6752 82.0119 69.6552 81.4989 70.2572 80.6929C70.5272 80.3309 70.1782 79.8399 69.7502 80.0669C69.2152 80.3509 68.7582 80.7319 68.2642 81.0829C67.7922 81.4179 67.3112 81.7399 66.8403 82.0769C65.9503 82.7129 65.1602 83.3739 64.5102 84.2589C63.5962 85.5019 62.5432 87.8839 64.1642 89.0289C64.2862 89.1159 64.4332 88.9129 64.3192 88.8159Z" fill="#253529"/>
<path d="M59.2715 91.6259C59.6055 91.4709 59.8885 91.1829 60.1675 90.9489C60.4425 90.7199 60.7025 90.4749 60.9815 90.2499C61.4165 89.8979 61.9255 89.5009 62.5075 89.4819C62.9755 89.4669 63.4465 89.6549 63.7965 89.9639C63.9735 90.1199 64.1185 90.2949 64.2295 90.5029C64.2915 90.6189 64.3245 90.7449 64.3835 90.8619C64.4405 90.9739 64.5175 91.0719 64.5515 91.1939C64.6455 91.5299 65.2245 91.5539 65.2735 91.1759C65.2965 91.0019 65.3435 90.8249 65.3395 90.6489C65.3345 90.4429 65.2355 90.2409 65.1445 90.0619C64.9965 89.7709 64.7845 89.5029 64.5425 89.2839C64.0255 88.8159 63.3585 88.5309 62.6605 88.5039C61.8745 88.4739 61.1775 88.8539 60.6485 89.4129C60.3695 89.7079 60.1715 90.0529 59.9355 90.3799C59.7755 90.6019 59.6385 90.8329 59.4815 91.0559C59.3665 91.2189 59.2665 91.3899 59.2045 91.5799C59.1945 91.6179 59.2405 91.6399 59.2715 91.6259Z" fill="#253529"/>
<path d="M68.2364 85.4819C67.6994 85.9849 67.0554 86.3679 66.4184 86.7299C65.8364 87.0609 65.2514 87.4399 64.8264 87.9639C64.4234 88.4619 64.1174 89.0379 64.0274 89.6789C63.9444 90.2749 63.9944 91.1519 64.5804 91.4839C64.8294 91.6259 65.2104 91.4299 65.1764 91.1219C65.1464 90.8459 65.0024 90.6229 64.9494 90.3529C64.9054 90.1279 64.9184 89.8899 64.9654 89.6669C65.0764 89.1349 65.3354 88.6259 65.6804 88.2079C66.4794 87.2389 67.5444 86.5499 68.3614 85.6009C68.4334 85.5169 68.3174 85.4069 68.2364 85.4819Z" fill="#253529"/>
</svg>
